<svg xmlns="http://www.w3.org/2000/svg" viewBox="0 0 240 240">
  <circle cx="120" cy="120" r="120" fill="#29B6F6"/>
  <path d="M168.5 85.8c-1.7 18.4-9.3 63.2-13.2 84-1.6 8.8-4.9 11.8-8 12.1-6.8.6-12-4.5-18.5-8.8-10.3-6.7-16.1-10.9-26.1-17.5-11.6-7.6-4-11.7 2.5-18.6 1.7-1.8 31.6-28.9 32.2-31.4.1-.3.1-1.4-.5-2-.7-.6-1.7-.4-2.4-.2-1 .2-17.2 10.9-48.6 32.1-4.6 3.2-8.7 4.7-12.5 4.6-4.1-.1-12-2.3-17.9-4.2-7.2-2.4-12.9-3.6-12.4-7.6.3-2.1 3.2-4.3 8.8-6.5 34.4-15 57.3-24.8 68.8-29.6 32.8-13.6 39.6-16 44-16.1.9 0 3.2.2 4.6 1.4 1.2 1 1.5 2.5 1.7 3.5.1.9.3 3.2.1 4.9z" fill="white"/>
</svg>
